<?xml version="1.0" encoding="UTF-8"?>
<svg width="188px" height="188px" viewBox="0 0 188 188" version="1.1" xmlns="http://www.w3.org/2000/svg" xmlns:xlink="http://www.w3.org/1999/xlink">
    <!-- Generator: Sketch 62 (91390) - https://sketch.com -->
    <title>Artboard Copy</title>
    <desc>Created with Sketch.</desc>
    <g id="Artboard-Copy" stroke="none" stroke-width="1" fill="none" fill-rule="evenodd">
        <path d="M94.5,1 C146.138624,1 188,42.8613759 188,94.5 C188,146.138624 146.138624,188 94.5,188 C42.8613759,188 1,146.138624 1,94.5 C1,42.8613759 42.8613759,1 94.5,1 Z M94.5,12 C48.9365081,12 12,48.9365081 12,94.5 C12,140.063492 48.9365081,177 94.5,177 C140.063492,177 177,140.063492 177,94.5 C177,48.9365081 140.063492,12 94.5,12 Z" id="Combined-Shape" fill="#D8D8D8"></path>
        <path d="M95.006881,43.232994 L148.631711,86.035163 C149.063356,86.3796929 149.133977,87.0089071 148.789447,87.4405524 C148.599696,87.6782832 148.312058,87.8167259 148.007884,87.8167259 L130.199666,87.8167259 L130.199666,129 C130.199666,130.656854 128.85652,132 127.199666,132 L61.2376979,132 C59.5808437,132 58.2376979,130.656854 58.2376979,129 L58.2376979,87.8167259 L39.9923701,87.8167259 C39.4400853,87.8167259 38.9923701,87.3690107 38.9923701,86.8167259 C38.9923701,86.5181731 39.125766,86.2352355 39.3560861,86.0452711 L91.2265496,43.2633181 C92.3209837,42.3606458 93.898107,42.3479948 95.006881,43.232994 Z M108.99069,87.8542054 L80.0783414,87.8542054 L80.0783414,107.914953 L108.99069,107.914953 L108.99069,87.8542054 Z" id="Combined-Shape" fill="#D8D8D8"></path>
    </g>
</svg>